<?xml version="1.0" encoding="UTF-8"?>
<svg width="406px" height="60px" viewBox="0 0 406 60" version="1.1" xmlns="http://www.w3.org/2000/svg" xmlns:xlink="http://www.w3.org/1999/xlink">
    <!-- Generator: Sketch 62 (91390) - https://sketch.com -->
    <title>Books&amp;Tea</title>
    <desc>Created with Sketch.</desc>
    <g id="Page-1" stroke="none" stroke-width="1" fill="none" fill-rule="evenodd">
        <g id="Artboard-Copy" transform="translate(-70.000000, -161.000000)" fill="#FFFFFF" fill-rule="nonzero">
            <path d="M94.9755745,219.933824 C107.867378,219.933824 115.727339,214.823529 115.727339,205.338235 C115.727339,199.235294 110.879139,192.985294 96.8120138,191.919118 L96.8120138,191.772059 C107.316447,189.823529 111.834087,183.867647 111.834087,178.536765 C111.834087,171.588235 105.663651,166.698529 93.2493215,166.698529 C91.44553,166.698529 86.8898002,166.829702 82.2430672,166.844277 L81.4226524,166.845588 C77.198842,166.845588 72.5342862,166.772059 70,166.625 L70,168.132353 C74.7380134,168.352941 75.6195043,169.125 75.6195043,174.602941 L75.6195043,211.955882 C75.6195043,217.433824 74.7747422,218.205882 70,218.426471 L70,219.933824 C72.5342862,219.786765 77.1253845,219.713235 81.5695676,219.713235 C87.9603763,219.713235 92.6249322,219.933824 94.9755745,219.933824 Z M90.8252216,191.625 L87.5930885,191.625 L87.5930885,174.602941 C87.5930885,169.419118 88.4011218,168.132353 92.2576443,168.132353 C97.5833183,168.132353 99.6401303,171.955882 99.6401303,179.345588 C99.6401303,185.889706 97.9138773,191.625 90.8252216,191.625 Z M92.7718473,218.205882 C88.4745793,218.205882 87.5930885,217.213235 87.5930885,211.955882 L87.5930885,192.911765 L90.7517641,192.911765 C99.6768591,192.911765 103.239551,197.360294 103.239551,205.007353 C103.239551,213.463235 100.117604,218.205882 92.7718473,218.205882 Z M139.197033,221 C150.032025,221 157.634883,215.411765 157.634883,200.485294 C157.634883,185.595588 150.032025,179.933824 139.197033,179.933824 C128.39877,179.933824 120.795911,185.595588 120.795911,200.485294 C120.795911,215.411765 128.39877,221 139.197033,221 Z M139.197033,219.492647 C135.120138,219.492647 132.145106,213.977941 132.145106,200.485294 C132.145106,187.029412 135.120138,181.441176 139.197033,181.441176 C143.310657,181.441176 146.285688,187.029412 146.285688,200.485294 C146.285688,213.977941 143.310657,219.492647 139.197033,219.492647 Z M181.692238,221 C192.52723,221 200.130089,215.411765 200.130089,200.485294 C200.130089,185.595588 192.52723,179.933824 181.692238,179.933824 C170.893975,179.933824 163.291116,185.595588 163.291116,200.485294 C163.291116,215.411765 170.893975,221 181.692238,221 Z M181.692238,219.492647 C177.615343,219.492647 174.640311,213.977941 174.640311,200.485294 C174.640311,187.029412 177.615343,181.441176 181.692238,181.441176 C185.805862,181.441176 188.780894,187.029412 188.780894,200.485294 C188.780894,213.977941 185.805862,219.492647 181.692238,219.492647 Z M246.885833,219.933824 L246.885833,218.352941 C245.122851,217.764706 244.131174,216.257353 242.955853,214.419118 L230.321151,193.352941 L235.16935,188.316176 C238.291297,185.191176 241.413244,183.169118 244.57192,182.470588 L244.57192,180.963235 C242.808938,181.110294 238.621856,181.220588 235.757011,181.220588 C233.443098,181.220588 229.73349,181.110294 226.942102,180.963235 L226.942102,182.470588 C230.284422,182.654412 232.781979,184.125 232.781979,186.477941 C232.781979,187.764706 232.010675,189.308824 230.247693,191.036765 L224.554731,196.625 C223.305953,197.875 221.910259,198.352941 220.000362,198.5 L220.000362,161 C216.878415,161.735294 213.242265,162.029412 209.018455,162.029412 C207.549303,162.029412 205.969966,161.955882 204.390628,161.808824 L204.390628,163.389706 C208.026778,163.389706 209.202099,165.522059 209.202099,170.044118 L209.202099,212.948529 C209.202099,217.139706 207.879862,218.352941 204.390628,218.352941 L204.390628,219.933824 C206.373982,219.860294 210.854894,219.639706 214.784874,219.639706 C218.567939,219.639706 222.681563,219.860294 224.518003,219.933824 L224.518003,218.352941 C221.249141,218.352941 220.000362,217.139706 220.000362,212.948529 L220.000362,200.007353 C221.653157,200.080882 222.644834,200.558824 223.709969,202.323529 L231.165913,215.779412 C231.386286,216.220588 231.533201,216.588235 231.533201,216.955882 C231.533201,217.801471 230.725167,218.352941 229.256016,218.352941 L229.256016,219.933824 C231.129184,219.860294 235.279537,219.639706 238.989144,219.639706 C241.964176,219.639706 245.379953,219.860294 246.885833,219.933824 Z M264.699294,221 C272.449068,221 278.950063,216.698529 278.950063,209.823529 C278.950063,203.867647 274.983354,200.632353 269.951511,196.919118 C265.323684,193.463235 260.695857,190.963235 260.695857,186.441176 C260.695857,183.352941 262.899584,181.588235 265.801158,181.588235 C272.228695,181.588235 274.689524,187.691176 275.460829,193.242647 L277.040166,193.242647 L277.04248,191.323529 C277.056694,185.824265 277.139334,182.588235 277.370726,180.007353 L275.754659,180.007353 C275.497557,181.882353 274.873168,182.764706 273.991677,182.764706 C273.587661,182.764706 273.146915,182.580882 272.632712,182.25 C271.163561,181.294118 267.85797,179.933824 263.63416,179.933824 C256.802605,179.933824 250.705627,183.610294 250.705627,190.301471 C250.705627,196.367647 255.223268,199.786765 260.144925,203.647059 C264.478922,207.029412 267.747784,209.492647 267.747784,213.904412 C267.747784,217.764706 265.066582,219.272059 262.458838,219.272059 C256.141487,219.272059 253.239913,213.573529 252.321694,205.411765 L250.705627,205.411765 C250.705627,213.022059 250.632169,217.213235 250.411797,220.448529 L251.991134,220.448529 C252.358422,218.830882 252.982812,217.764706 253.827574,217.764706 C253.93776,217.764706 254.047946,217.801471 254.158133,217.838235 C255.223268,218.169118 256.288402,218.720588 257.647367,219.419118 C259.336892,220.338235 261.687534,221 264.699294,221 Z M312.483445,221 C328.05645,221 338.450697,213.058824 338.450697,202.544118 C338.450697,196.882353 335.989868,192.102941 331.39877,190.080882 L332.794464,189.602941 C342.160304,187.654412 348.073639,183.941176 348.073639,176.183824 C348.073639,169.455882 343.115252,165.558824 336.100054,165.558824 C330.407092,165.558824 326.697485,167.875 326.697485,171.882353 C326.697485,175.044118 329.121585,176.882353 332.574091,176.882353 C335.953139,176.882353 338.560883,175.117647 338.560883,172.066176 C338.560883,170.227941 337.312104,168.242647 334.924733,167.286765 C335.365479,167.066176 336.100054,166.919118 337.055003,166.919118 C341.278813,166.919118 345.539352,169.713235 345.539352,173.757353 C345.539352,177.507353 341.462457,179.419118 334.226886,181.220588 C330.664194,182.433824 326.073096,183.463235 322.987878,184.235294 C312.556902,186.294118 306.166094,190.264706 306.166094,198.058824 C306.166094,204.639706 311.344853,207.727941 317.368373,207.727941 C323.244979,207.727941 328.019721,205.595588 328.019721,200.889706 C328.019721,197.801471 325.852723,195.779412 322.216573,195.779412 C318.800796,195.779412 316.193052,197.580882 316.193052,200.742647 C316.193052,203.095588 317.515289,204.860294 320.012846,205.669118 C319.535372,206.183824 317.992763,206.441176 317.001086,206.441176 C313.181292,206.441176 308.847295,204.125 308.847295,200.375 C308.847295,196.588235 313.254749,194.786765 321.004523,193.095588 C323.244979,192.397059 327.101502,191.367647 330.113262,190.485294 C335.438936,192.985294 335.806224,197.764706 335.806224,200.044118 C335.806224,208.647059 325.154876,213.169118 315.091189,213.169118 C301.685182,213.169118 293.164103,208.463235 293.164103,198.536765 C293.164103,192.25 296.432965,188.757353 301.13425,186.367647 C302.199385,187.066176 304.219468,188.279412 305.945721,188.279412 C307.157771,188.279412 308.075991,187.691176 308.075991,186.698529 C308.075991,185.485294 307.084313,184.713235 305.284603,184.713235 C304.256197,184.713235 302.750317,184.897059 301.060792,185.301471 C298.746879,182.654412 298.12249,179.860294 298.12249,177.617647 C298.12249,171 302.272842,167.764706 307.525059,167.764706 C309.728786,167.764706 311.675412,168.352941 312.483445,169.088235 C309.6186,169.676471 307.671974,171.955882 307.671974,174.492647 C307.671974,177.617647 310.169531,179.161765 313.144563,179.161765 C316.229781,179.161765 318.910982,177.213235 318.910982,174.125 C318.910982,171.147059 316.670527,169.161765 314.393342,168.022059 C312.556902,167.102941 310.426633,166.477941 306.57011,166.477941 C299.00398,166.477941 291.584766,169.786765 291.584766,176.257353 C291.584766,180.852941 295.331102,183.867647 300.105844,185.742647 C295.845305,186.772059 284.826669,191 284.826669,202.25 C284.826669,213.830882 295.845305,221 312.483445,221 Z M388.365117,219.933824 L388.365117,218.426471 C381.680478,218.352941 380.321513,217.470588 380.321513,211.330882 L380.321513,168.352941 L381.974308,168.352941 C388.989506,168.352941 392.956215,172.470588 395.490501,185.154412 L397.216754,185.154412 C397.069839,183.757353 396.996381,181.661765 396.996381,179.419118 C396.996381,176.919118 397.143297,171.735294 397.547313,166.625 C391.797846,166.811652 383.997216,166.840367 377.661125,166.844785 L371.077093,166.844785 C364.724818,166.840367 356.871595,166.811652 351.122128,166.625 C351.489416,171.735294 351.636331,176.919118 351.636331,179.419118 C351.636331,181.661765 351.562873,183.757353 351.415958,185.154412 L353.142211,185.154412 C355.713226,172.433824 359.606477,168.352941 366.695133,168.352941 L368.347928,168.352941 L368.347928,211.330882 C368.347928,217.470588 366.988963,218.352941 360.304324,218.426471 L360.304324,219.933824 C363.279356,219.823529 368.494843,219.713235 374.04089,219.713235 C379.586937,219.713235 385.169712,219.823529 388.365117,219.933824 Z M419.584585,221 C427.922019,221 432.843676,214.933824 434.643387,209.272059 L433.284422,208.757353 C430.235933,213.757353 426.416139,214.786765 423.404379,214.786765 C418.629636,214.786765 413.597793,210.705882 413.597793,200.227941 C413.597793,199.014706 413.634521,197.764706 413.744708,196.661765 L434.790302,196.661765 C434.790302,184.860294 429.427899,179.933824 420.64972,179.933824 C409.961643,179.933824 402.248598,186.882353 402.248598,200.852941 C402.248598,214.602941 409.44744,221 419.584585,221 Z M425.314275,195.227941 L413.524335,195.227941 C414.148724,185.485294 416.829926,181.551471 420.208974,181.551471 C423.881853,181.551471 425.461191,187.875 425.314275,195.227941 Z M467.405464,220.448529 C471.225258,220.448529 473.722815,219.529412 476,217.691176 L475.228695,216.404412 C474.383933,217.066176 473.539171,217.691176 472.474037,217.691176 C471.261987,217.691176 470.85797,216.772059 470.85797,214.345588 L470.85797,193.867647 C470.85797,188.610294 470.380496,185.595588 468.176769,183.316176 C465.752669,180.816176 462.006333,179.933824 457.158133,179.933824 C452.08956,179.933824 448.416682,181 445.73548,182.507353 C443.274652,183.941176 441.51167,186.036765 441.51167,188.794118 C441.51167,192.102941 443.568482,194.602941 446.837344,194.602941 C450.546951,194.602941 452.971051,192.323529 452.971051,189.198529 C452.971051,186.147059 451.208069,184.198529 448.526868,183.279412 C449.885833,181.955882 452.08956,181.441176 453.889271,181.441176 C458.333454,181.441176 460.022978,184.235294 460.022978,188.169118 L460.022978,194.051471 C460.022978,197.286765 455.688981,198.720588 450.142935,200.816176 C443.164465,203.389706 439.565044,206.441176 439.565044,211.882353 C439.565044,217.360294 443.458296,220.448529 449.0778,220.448529 C453.30161,220.448529 457.598878,218.573529 460.169893,214.345588 C460.206622,217.580882 461.896146,220.448529 467.405464,220.448529 Z M454.954406,215.632353 C452.273204,215.632353 450.253121,213.941176 450.253121,209.786765 C450.253121,205.264706 452.71395,202.801471 455.358422,200.852941 C457.892709,199.272059 459.325131,198.279412 460.022978,197.139706 L460.022978,212.580882 C458.44364,214.823529 456.790845,215.632353 454.954406,215.632353 Z" id="Books&amp;Tea"></path>
        </g>
    </g>
</svg>