<?xml version="1.0" encoding="utf-8"?>
<!-- Generator: Adobe Illustrator 21.0.2, SVG Export Plug-In . SVG Version: 6.00 Build 0)  -->
<svg version="1.1" id="Layer_1" xmlns="http://www.w3.org/2000/svg" xmlns:xlink="http://www.w3.org/1999/xlink" x="0px" y="0px"
	 viewBox="0 0 20 20" style="enable-background:new 0 0 20 20;" xml:space="preserve">
<style type="text/css">
	.st0{fill:#FFFFFF;}
</style>
<g>
	<g>
		<path class="st0" d="M10,0C4.5,0,0,4.5,0,10c0,5.5,4.5,10,10,10c5.5,0,10-4.5,10-10C20,4.5,15.5,0,10,0z M10,18.7
			c-4.8,0-8.7-3.9-8.7-8.7S5.2,1.3,10,1.3s8.7,3.9,8.7,8.7S14.8,18.7,10,18.7z"/>
	</g>
</g>
<g>
	<g>
		<path class="st0" d="M14.5,9.3h-3.8V5.5c0-0.4-0.3-0.7-0.7-0.7S9.3,5.1,9.3,5.5v3.8H5.5c-0.4,0-0.7,0.3-0.7,0.7s0.3,0.7,0.7,0.7
			h3.8v3.8c0,0.4,0.3,0.7,0.7,0.7s0.7-0.3,0.7-0.7v-3.8h3.8c0.4,0,0.7-0.3,0.7-0.7C15.2,9.6,14.9,9.3,14.5,9.3z"/>
	</g>
</g>
</svg>
