<?xml version="1.0" encoding="UTF-8"?>
<svg width="20px" height="20px" viewBox="0 0 20 20" version="1.1" xmlns="http://www.w3.org/2000/svg" xmlns:xlink="http://www.w3.org/1999/xlink">
    <!-- Generator: Sketch 62 (91390) - https://sketch.com -->
    <title>ic-settings</title>
    <desc>Created with Sketch.</desc>
    <g id="Page-1" stroke="none" stroke-width="1" fill="none" fill-rule="evenodd">
        <g id="ic-settings" fill="#FFFFFF" fill-rule="nonzero">
            <path d="M10.6276172,1.77635684e-15 C11.6428125,1.77635684e-15 12.46875,0.8259375 12.46875,1.84113281 L12.46875,2.26578125 C12.9003516,2.40367188 13.3196875,2.57773438 13.7225391,2.78621094 L14.0234766,2.48527344 C14.7523437,1.75550781 15.9198828,1.77691406 16.6275781,2.48554688 L17.5147266,3.37265625 C18.2236719,4.08082031 18.2440625,5.24796875 17.5144922,5.97675781 L17.2137891,6.27746094 C17.4222656,6.6803125 17.5962891,7.09957031 17.7342188,7.53125 L18.1588281,7.53125 C19.1740234,7.53125 20,8.3571875 20,9.37238281 L20,10.6276172 C20,11.6428125 19.1740234,12.46875 18.1588281,12.46875 L17.7342188,12.46875 C17.5962891,12.9003906 17.4222656,13.3196875 17.2137891,13.7225391 L17.5147266,14.0234766 C18.2438672,14.7518359 18.22375,15.9191016 17.5144922,16.6275781 L16.6272656,17.5147656 C15.9179297,18.2250781 14.7506641,18.2428125 14.0232031,17.5145313 L13.7225391,17.2138672 C13.3196875,17.4223047 12.9003516,17.5963672 12.46875,17.7342969 L12.46875,18.1589453 C12.46875,19.1740625 11.6428125,20 10.6275781,20 L9.37238281,20 C8.3571875,20 7.53121094,19.1740625 7.53121094,18.1588672 L7.53121094,17.7342187 C7.09960938,17.5963281 6.68027344,17.4222656 6.27742187,17.2137891 L5.97648438,17.5147266 C5.24761719,18.2444922 4.08007812,18.2230859 3.37238281,17.5144531 L2.48523437,16.6273438 C1.77628906,15.9191797 1.75589844,14.7520313 2.48546875,14.0232422 L2.78617187,13.7225391 C2.57769531,13.3196875 2.40367188,12.9004297 2.26574219,12.46875 L1.84113281,12.46875 C0.825976563,12.46875 0,11.6428125 0,10.6276172 L0,9.37238281 C0,8.3571875 0.825976562,7.53125 1.84117188,7.53125 L2.26578125,7.53125 C2.40371094,7.09960938 2.57773438,6.6803125 2.78621094,6.27746094 L2.48527344,5.9765625 C1.75613281,5.24820313 1.77625,4.0809375 2.48550781,3.37246094 L3.37273438,2.48527344 C4.08207031,1.77496094 5.24933594,1.75722656 5.97679687,2.48550781 L6.27746094,2.78617188 C6.6803125,2.57773438 7.09964844,2.40367188 7.53125,2.26574219 L7.53125,1.84113281 C7.53125,0.8259375 8.3571875,1.77635684e-15 9.37242188,1.77635684e-15 L10.6276172,1.77635684e-15 Z M10.6276562,1.171875 L9.37246094,1.171875 C9.0034375,1.171875 8.70316406,1.47210938 8.70316406,1.84113281 L8.70316406,2.70628906 C8.70316406,2.97351562 8.52238281,3.206875 8.26363281,3.27363281 C7.63535156,3.43578125 7.03300781,3.68582031 6.47335937,4.01679687 C6.24304687,4.15292969 5.94988281,4.11589844 5.76074219,3.92675781 L5.14792969,3.31390625 C4.88371094,3.049375 4.459375,3.05550781 4.20167969,3.31363281 L3.31390625,4.20136719 C3.05679687,4.45816406 3.04820312,4.8825 3.31367187,5.14765625 L3.92675781,5.76074219 C4.11589844,5.94988281 4.15292969,6.24308594 4.01679687,6.47332031 C3.68582031,7.03292969 3.43582031,7.63527344 3.27367187,8.26359375 C3.206875,8.52234375 2.97351562,8.70308594 2.70632812,8.70308594 L1.84117187,8.70308594 C1.47214844,8.703125 1.171875,9.00335938 1.171875,9.37238281 L1.171875,10.6276172 C1.171875,10.9966406 1.47214844,11.296875 1.84117187,11.296875 L2.70628906,11.296875 C2.97351562,11.296875 3.20683594,11.4776562 3.27363281,11.7363672 C3.43578125,12.3646875 3.68582031,12.9670312 4.01675781,13.5266406 C4.15289062,13.756875 4.11585937,14.0500781 3.92671875,14.2392188 L3.31386719,14.8520703 C3.04894531,15.1166797 3.05585937,15.5408984 3.31363281,15.7983594 L4.20132812,16.6860547 C4.45863281,16.9437109 4.88300781,16.95125 5.14761719,16.6862891 L5.76066406,16.0732031 C5.90003906,15.9338672 6.19,15.815625 6.47332031,15.9832031 C7.03296875,16.3141797 7.6353125,16.5642188 8.26359375,16.7263672 C8.52234375,16.793125 8.703125,17.0264844 8.703125,17.2937109 L8.703125,18.1588672 C8.703125,18.5278906 9.00339844,18.828125 9.37242187,18.828125 L10.6276172,18.828125 C10.9966406,18.828125 11.2969141,18.5278906 11.2969141,18.1588672 L11.2969141,17.2937109 C11.2969141,17.0264844 11.4776953,16.793125 11.7364453,16.7263672 C12.3647266,16.5642187 12.9670703,16.3141797 13.5267188,15.9832031 C13.7569922,15.8470313 14.0501563,15.8840625 14.2393359,16.0732422 L14.8521484,16.6860938 C15.1163672,16.950625 15.5406641,16.9444922 15.7983984,16.6863672 L16.6861719,15.7986328 C16.9432812,15.5418359 16.951875,15.1174609 16.6864062,14.8523438 L16.0733203,14.2392578 C15.8841797,14.0501172 15.8471484,13.7569141 15.9832812,13.5266797 C16.3142578,12.9670703 16.5642578,12.3647266 16.7264062,11.7364062 C16.7932031,11.4776562 17.0265625,11.2969141 17.29375,11.2969141 L18.1588672,11.2969141 C18.5278906,11.2969141 18.8281641,10.9966797 18.8281641,10.6276563 L18.8281641,9.37242188 C18.8281641,9.00339844 18.5278906,8.70316406 18.1588672,8.70316406 L17.29375,8.70316406 C17.0265234,8.70316406 16.7932031,8.52238281 16.7264062,8.26367187 C16.5642578,7.63535156 16.3142187,7.03300781 15.9832812,6.47339844 C15.8471484,6.24316406 15.8841797,5.94996094 16.0733203,5.76082031 L16.6861719,5.14796875 C16.9510937,4.88335937 16.9441797,4.45914062 16.6864062,4.20167969 L15.7987109,3.31398437 C15.5414062,3.05632812 15.1170312,3.04878906 14.8524219,3.31375 L14.239375,3.92683594 C14.0502344,4.11601563 13.7569531,4.15304687 13.5267578,4.016875 C12.9671094,3.68589844 12.3647656,3.43585937 11.7364844,3.27371094 C11.4777344,3.20695312 11.2969531,2.97359375 11.2969531,2.70636719 L11.2969531,1.84113281 C11.2969531,1.47210938 10.9966797,1.171875 10.6276562,1.171875 Z M10,5.6484375 C12.3994922,5.6484375 14.3515625,7.60054687 14.3515625,10 C14.3515625,12.3994531 12.3994922,14.3515625 10,14.3515625 C7.60050781,14.3515625 5.6484375,12.3994531 5.6484375,10 C5.6484375,7.60054687 7.60050781,5.6484375 10,5.6484375 Z M10,6.82 C8.24667969,6.8203125 6.8203125,8.24671875 6.8203125,10 C6.8203125,11.7532813 8.24671875,13.1796875 10,13.1796875 C11.7532813,13.1796875 13.1796875,11.7532813 13.1796875,10 C13.1796875,8.30717672 11.8499944,6.91907402 10.1801666,6.82535567 L10,6.82 Z" id="Combined-Shape"></path>
        </g>
    </g>
</svg>