<?xml version="1.0" encoding="utf-8"?>
<!-- Generator: Adobe Illustrator 21.0.2, SVG Export Plug-In . SVG Version: 6.00 Build 0)  -->
<svg version="1.1" id="Layer_1" xmlns="http://www.w3.org/2000/svg" xmlns:xlink="http://www.w3.org/1999/xlink" x="0px" y="0px"
	 viewBox="0 0 20 20" style="enable-background:new 0 0 20 20;" xml:space="preserve">
<style type="text/css">
	.st0{fill:#FFFFFF;}
</style>
<g>
	<g>
		<g>
			<path class="st0" d="M10,0.2c-5.4,0-9.8,4.4-9.8,9.8s4.4,9.8,9.8,9.8s9.8-4.4,9.8-9.8S15.4,0.2,10,0.2z M10,18.5
				c-4.7,0-8.5-3.8-8.5-8.5S5.3,1.5,10,1.5s8.5,3.8,8.5,8.5S14.7,18.5,10,18.5z"/>
		</g>
	</g>
	<g>
		<g>
			<path class="st0" d="M10.9,10l3-3c0.3-0.3,0.3-0.7,0-0.9c-0.3-0.3-0.7-0.3-0.9,0l-3,3L7,6C6.7,5.7,6.3,5.7,6.1,6
				c-0.3,0.3-0.3,0.7,0,0.9l3,3.1l-3,3c-0.3,0.3-0.3,0.7,0,0.9c0.3,0.3,0.7,0.3,0.9,0l3-3l3,3c0.3,0.3,0.7,0.3,0.9,0
				c0.3-0.3,0.3-0.7,0-0.9L10.9,10z"/>
		</g>
	</g>
</g>
</svg>
