<?xml version="1.0" encoding="UTF-8"?>
<svg width="20px" height="19px" viewBox="0 0 20 19" version="1.1" xmlns="http://www.w3.org/2000/svg" xmlns:xlink="http://www.w3.org/1999/xlink">
    <!-- Generator: Sketch 62 (91390) - https://sketch.com -->
    <title>ic-logout</title>
    <desc>Created with Sketch.</desc>
    <g id="Page-1" stroke="none" stroke-width="1" fill="none" fill-rule="evenodd">
        <g id="ic-logout" transform="translate(-0.000000, 0.000000)" fill="#FFFFFF" fill-rule="nonzero">
            <path d="M9.12512763,7.10542736e-15 C12.4894284,7.10542736e-15 15.4460333,1.82539271 17.029082,4.56203647 C17.1910744,4.84215398 17.0953711,5.20063095 16.8152536,5.36266239 C16.5352533,5.52457663 16.1766591,5.42899059 16.0146277,5.14883402 C14.6390402,2.77086255 12.0672794,1.1719154 9.12512763,1.1719154 C4.73973199,1.1719154 1.1719154,4.73973199 1.1719154,9.12512763 C1.1719154,13.5105233 4.73973199,17.0783399 9.12512763,17.0783399 C12.0653263,17.0783399 14.6382589,15.4808771 16.0146668,13.1013431 C16.1767373,12.8211865 16.5352533,12.7255614 16.8152927,12.8875147 C17.0954102,13.0495852 17.1911134,13.4080232 17.029121,13.6881407 C15.4467364,16.4235735 12.4908737,18.2502553 9.12512763,18.2502553 C4.08121561,18.2502553 -2.30926389e-14,14.16861 -2.30926389e-14,9.12512763 C-2.30926389e-14,4.08121561 4.0816453,7.10542736e-15 9.12512763,7.10542736e-15 Z M16.6889253,7.61641497 C16.6889253,7.14250817 17.2248244,6.86418754 17.6125592,7.13750817 L17.6125592,7.13750817 L19.7525226,8.64618177 C20.0858042,8.88165079 20.0792027,9.37376073 19.7524054,9.60399536 L19.7524054,9.60399536 L17.612442,11.112669 C17.2275978,11.3839193 16.6888472,11.110794 16.6888472,10.6337622 L16.6888472,10.6337622 L16.6888472,9.7110658 L6.41391359,9.7110658 C6.09031947,9.7110658 5.82793636,9.44876081 5.82793636,9.12512763 C5.82793636,8.80149445 6.09031947,8.5391504 6.41391359,8.5391504 L6.41391359,8.5391504 L16.6889253,8.5391504 Z" id="Combined-Shape"></path>
        </g>
    </g>
</svg>